<svg 
 xmlns="http://www.w3.org/2000/svg"
 xmlns:xlink="http://www.w3.org/1999/xlink"
 width="126px" height="49px">
<path fill-rule="evenodd"  fill="rgb(255, 255, 255)"
 d="M24.516,-0.000 C38.038,-0.000 49.000,10.836 49.000,24.203 C49.000,37.570 38.038,48.406 24.516,48.406 C10.993,48.406 0.031,37.570 0.031,24.203 C0.031,10.836 10.993,-0.000 24.516,-0.000 Z"/>
<path fill-rule="evenodd"  opacity="0.769" fill="rgb(125, 226, 255)"
 d="M3.000,-0.000 L16.469,-0.000 C18.126,-0.000 19.469,1.343 19.469,3.000 L19.469,46.000 C19.469,47.657 18.126,49.000 16.469,49.000 L3.000,49.000 C1.343,49.000 -0.000,47.657 -0.000,46.000 L-0.000,3.000 C-0.000,1.343 1.343,-0.000 3.000,-0.000 Z"/>
<text kerning="auto" font-family="Myriad Pro" fill="rgb(0, 0, 0)" font-size="18px" x="62px" y="30.244px"><tspan font-size="18px" font-family="Poppins" fill="#FFFFFF">Kallyas</tspan></text>
</svg>